<?xml version="1.0" encoding="UTF-8"?>
<!DOCTYPE svg PUBLIC "-//W3C//DTD SVG 1.1//EN" "http://www.w3.org/Graphics/SVG/1.1/DTD/svg11.dtd">
<!-- Creator: CorelDRAW X8 -->
<svg xmlns="http://www.w3.org/2000/svg" xml:space="preserve" width="14.9654in" height="3.75023in" version="1.1" style="shape-rendering:geometricPrecision; text-rendering:geometricPrecision; image-rendering:optimizeQuality; fill-rule:evenodd; clip-rule:evenodd"
viewBox="0 0 15180 3804"
 xmlns:xlink="http://www.w3.org/1999/xlink">
 <defs>
  <style type="text/css">
   <![CDATA[
    .fil0 {fill:#0073BD}
    .fil3 {fill:#0073BD}
    .fil2 {fill:white}
    .fil1 {fill:#0073BD;fill-rule:nonzero}
   ]]>
  </style>
 </defs>
 <g id="Layer_x0020_1">
  <metadata id="CorelCorpID_0Corel-Layer"/>
  <g id="_2185419279936">
   <polygon class="fil0" points="0,72 3721,72 3721,3792 0,3792 "/>
   <path class="fil1" d="M4044 72l1653 0 0 282 -1363 0 0 905 1351 0 0 281 -1351 0 0 1138 1351 0 0 282 -1641 0 0 -2888zm2219 2888l0 -2888 62 0 1920 2209 0 -2209 290 0 0 2888 -66 0 -1908 -2189 0 2189 -298 0zm2920 -2606l0 -282 1524 0 -1211 2606 1151 0 0 282 -1592 0 1215 -2606 -1087 0zm2066 -282l289 0 0 2888 -289 0 0 -2888zm3433 2574l430 543 -358 0 -295 -373c-234,144 -500,216 -796,216 -428,0 -790,-147 -1085,-440 -295,-293 -442,-647 -442,-1063 0,-278 67,-535 202,-772 135,-238 319,-423 551,-557 233,-133 488,-200 766,-200 428,0 790,146 1084,438 294,293 441,652 441,1079 0,222 -40,425 -121,610 -80,185 -206,357 -377,519zm-178 -226c252,-246 378,-547 378,-906 0,-229 -53,-436 -160,-621 -107,-185 -258,-333 -452,-445 -194,-111 -399,-167 -614,-167 -217,0 -421,55 -612,166 -192,111 -342,261 -449,450 -108,189 -162,399 -162,631 0,343 119,632 357,868 238,237 525,355 862,355 230,0 438,-55 626,-164l-650 -822 358 0 518 655z"/>
   <path class="fil1" d="M4044 3290l280 0 0 49 -224 0 0 157 224 0 0 49 -224 0 0 246 -56 0 0 -501zm379 0l112 0c62,0 104,2 126,7 33,6 60,21 81,43 21,23 31,50 31,83 0,27 -7,51 -21,72 -15,21 -35,36 -62,47 -26,10 -63,16 -110,16l201 233 -69 0 -200 -233 -33 0 0 233 -56 0 0 -501zm56 49l0 170 97 1c37,0 65,-3 83,-10 17,-6 31,-16 42,-30 10,-14 15,-30 15,-47 0,-17 -5,-32 -16,-46 -10,-14 -23,-24 -40,-29 -16,-6 -44,-9 -82,-9l-99 0zm679 -62c84,0 155,26 212,76 57,51 85,113 85,187 0,74 -28,136 -85,187 -57,51 -126,77 -208,77 -82,0 -152,-26 -209,-76 -57,-51 -85,-113 -85,-185 0,-48 13,-93 39,-134 25,-41 61,-74 106,-97 44,-23 93,-35 145,-35zm2 49c-41,0 -80,10 -117,29 -37,19 -66,45 -87,78 -20,33 -31,69 -31,110 0,59 23,109 69,150 46,42 101,62 166,62 44,0 84,-9 120,-28 37,-19 66,-45 87,-78 20,-32 31,-69 31,-109 0,-40 -11,-76 -31,-108 -21,-32 -50,-58 -88,-77 -37,-19 -77,-29 -119,-29zm383 465l77 -501 12 0 227 411 225 -411 9 0 80 501 -54 0 -56 -359 -198 359 -14 0 -200 -361 -53 361 -55 0zm898 -452l0 -49 305 0 0 49 -124 0 0 452 -57 0 0 -452 -124 0zm385 -49l55 0 0 210 285 0 0 -210 56 0 0 501 -56 0 0 -242 -285 0 0 242 -55 0 0 -501zm523 0l56 0 0 501 -56 0 0 -501zm184 501l0 -501 12 0 371 383 0 -383 56 0 0 501 -13 0 -368 -380 0 380 -58 0zm574 -501l56 0 0 188 224 -188 75 0 -269 225 290 276 -74 0 -246 -234 0 234 -56 0 0 -501zm451 0l56 0 0 501 -56 0 0 -501zm184 501l0 -501 12 0 371 383 0 -383 56 0 0 501 -13 0 -369 -380 0 380 -57 0zm1113 -417l-44 37c-31,-28 -65,-49 -102,-63 -37,-14 -74,-21 -109,-21 -44,0 -86,9 -125,29 -40,19 -71,45 -93,79 -21,33 -32,68 -32,104 0,38 11,74 33,108 23,34 54,61 94,80 40,20 83,29 131,29 57,0 106,-14 146,-43 39,-29 63,-67 70,-113l-178 0 0 -49 241 0c0,78 -26,139 -77,185 -51,45 -118,68 -204,68 -103,0 -185,-32 -245,-95 -46,-48 -70,-105 -70,-169 0,-47 14,-91 40,-132 27,-41 63,-73 110,-96 46,-23 99,-35 157,-35 48,0 92,8 134,23 42,16 83,40 123,74zm298 -35l0 -49 305 0 0 49 -124 0 0 452 -57 0 0 -452 -124 0zm651 -62c85,0 156,26 212,76 57,51 86,113 86,187 0,74 -29,136 -85,187 -57,51 -126,77 -208,77 -83,0 -152,-26 -209,-76 -57,-51 -86,-113 -86,-185 0,-48 13,-93 39,-134 26,-41 62,-74 106,-97 45,-23 93,-35 145,-35zm3 49c-41,0 -80,10 -117,29 -37,19 -66,45 -87,78 -21,33 -31,69 -31,110 0,59 23,109 69,150 46,42 101,62 166,62 43,0 83,-9 120,-28 37,-19 66,-45 86,-78 21,-32 31,-69 31,-109 0,-40 -10,-76 -31,-108 -20,-32 -49,-58 -87,-77 -37,-19 -77,-29 -119,-29zm622 -36l320 0 0 49 -264 0 0 157 261 0 0 49 -261 0 0 197 261 0 0 49 -317 0 0 -501zm417 501l0 -501 12 0 371 383 0 -383 56 0 0 501 -13 0 -369 -380 0 380 -57 0zm802 -501l260 501 -60 0 -87 -164 -242 0 -86 164 -62 0 263 -501 14 0zm-7 105l-96 183 191 0 -95 -183zm355 -105l109 0c45,0 79,4 102,14 24,9 43,24 57,43 14,20 21,42 21,65 0,23 -7,43 -19,61 -12,19 -29,33 -53,45 29,9 52,19 67,31 16,12 28,26 36,43 9,17 14,36 14,55 0,41 -17,75 -50,103 -32,27 -76,41 -131,41l-153 0 0 -501zm54 49l0 160 32 0c39,0 67,-3 86,-9 18,-7 32,-17 43,-31 11,-14 16,-30 16,-47 0,-23 -9,-41 -27,-54 -18,-13 -46,-19 -85,-19l-65 0zm0 211l0 192 69 0c41,0 71,-3 90,-10 19,-7 34,-19 46,-34 11,-15 17,-32 17,-49 0,-23 -8,-42 -24,-59 -16,-17 -39,-28 -67,-34 -19,-4 -52,-6 -100,-6l-31 0zm390 -260l56 0 0 452 215 0 0 49 -271 0 0 -501zm351 0l56 0 0 501 -56 0 0 -501zm184 501l0 -501 12 0 371 383 0 -383 56 0 0 501 -13 0 -369 -380 0 380 -57 0zm1112 -417l-43 37c-31,-28 -65,-49 -102,-63 -37,-14 -74,-21 -109,-21 -44,0 -86,9 -125,29 -40,19 -71,45 -93,79 -22,33 -32,68 -32,104 0,38 11,74 33,108 23,34 54,61 94,80 40,20 83,29 131,29 57,0 106,-14 145,-43 40,-29 64,-67 71,-113l-178 0 0 -49 241 0c0,78 -26,139 -77,185 -51,45 -119,68 -204,68 -103,0 -185,-32 -245,-95 -47,-48 -70,-105 -70,-169 0,-47 14,-91 40,-132 27,-41 63,-73 110,-96 46,-23 99,-35 157,-35 48,0 92,8 134,23 42,16 83,40 122,74z"/>
   <polygon class="fil2" points="3257,509 1860,937 464,1364 1533,2360 2601,3355 2929,1932 "/>
   <polygon class="fil3" points="2439,1397 2059,1514 1678,1630 1970,1902 2261,2173 2350,1785 "/>
  </g>
 </g>
</svg>
